# xmcd CD database file
#
# Track frame offsets:
#	150
#	42085
#	76072
#	108060
#	135072
#	166075
#	200761
#
# Disc length: 3233 seconds
#
# Revision: 0
# Processed by: cddbd v1.5.2PL0 Copyright (c) Steve Scherf et al.
# Submitted via: CDex 1.51
#
DISCID=440c9f07
DTITLE=Tony O'Connor - Complete Calm
DYEAR=2007
DGENRE=New Age
TTITLE0=Horizon Blue
TTITLE1=Cascade
TTITLE2=Lilypond
TTITLE3=Quietude
TTITLE4=Somewhere
TTITLE5=Periodo A Tiempo
TTITLE6=When We Sail Away
EXTD=YEAR: 2007
EXTT0=
EXTT1=
EXTT2=
EXTT3=
EXTT4=
EXTT5=
EXTT6=
PLAYORDER=
